<svg width="640" height="480" xmlns="http://www.w3.org/2000/svg" style="vector-effect: non-scaling-stroke;" fill="none">
    <g stroke="null">
        <title style="vector-effect: non-scaling-stroke;">background</title>
        <rect stroke="null" fill="none" id="canvas_background" height="482" width="642" y="-1" x="-1"/>
    </g>
    <g stroke="null">
        <title style="vector-effect: non-scaling-stroke;">Layer 1</title>
        <path stroke="null" id="svg_1" fill="#00B3FF"
              d="m272.312893,340.96554c55.830852,0 101.090994,-46.241708 101.090994,-103.28579c0,-57.044425 -45.260142,-103.287677 -101.090994,-103.287677c-55.830852,0 -101.090994,46.243253 -101.090994,103.287677c0,57.044081 45.260142,103.28579 101.090994,103.28579z"/>
        <path stroke="null" id="svg_2" fill="#00B3FF"
              d="m130.416304,100.411832c74.412503,-74.682461 195.07837,-74.682461 269.489758,0c74.532431,74.682302 74.532431,195.766246 0,270.325753c-74.411388,74.559507 -195.077255,74.559507 -269.489758,-0.122636l-121.62418,-122.062644c-7.189496,-7.222783 -7.189496,-18.854092 0,-26.078467l121.62418,-122.062006zm42.778784,234.453925c54.639915,54.848556 143.312119,54.848556 197.953627,0c54.639915,-54.848556 54.639915,-143.733222 -0.121043,-198.581937c-54.639915,-54.848715 -143.312119,-54.848715 -197.953627,0l-89.390182,89.619049c-5.272393,5.386428 -5.272393,13.956615 0,19.222l89.511225,89.740889z"
              clip-rule="evenodd" fill-rule="evenodd"/>
        <path stroke="null" id="svg_3" fill="#00B3FF"
              d="m471.027883,45.526178l148.868913,152.10658c19.649988,20.074949 19.649988,52.40292 0,72.818722l-148.868913,152.104809c-8.662993,8.848913 -23.647271,0.681707 -20.982416,-11.907742c25.6437,-116.036302 25.6437,-237.176554 0,-353.212413c-2.996856,-12.590335 11.987422,-21.097509 20.982416,-11.909956z"/>
    </g>
</svg>